<?xml version="1.0" encoding="UTF-8"?>
<svg version="1.1" xmlns="http://www.w3.org/2000/svg" width="180" height="60">
<path d="M0 0 C59.4 0 118.8 0 180 0 C180 19.8 180 39.6 180 60 C120.6 60 61.2 60 0 60 C0 40.2 0 20.4 0 0 Z " fill="#FDFEFE" transform="translate(0,0)"/>
<path d="M0 0 C6.00011802 3.36640285 9.29346164 8.87653344 11.3671875 15.328125 C12.19463289 21.59306868 10.40603921 26.89584141 7.3671875 32.328125 C2.54622203 38.16210346 -3.66806934 40.74075564 -11.0078125 41.828125 C-17.25807167 40.96602029 -23.27355247 38.25374406 -27.5703125 33.515625 C-31.29468507 27.75977648 -33.59299671 22.28946054 -32.6328125 15.328125 C-29.61174794 7.11702646 -25.93759959 2.59792183 -18.1953125 -1.484375 C-11.44129661 -3.73571363 -6.39310757 -2.75933518 0 0 Z " fill="#4F93E2" transform="translate(42.6328125,7.671875)"/>
<path d="M0 0 C4.65972222 1.27083333 4.65972222 1.27083333 6.4375 3.9375 C7.125 6.125 7.125 6.125 7.4375 7.9375 C8.4275 7.9375 9.4175 7.9375 10.4375 7.9375 C9.98835263 12.31407556 7.09058771 14.79975815 4.125 17.75 C3.63837891 18.26498047 3.15175781 18.77996094 2.65039062 19.31054688 C1.19921875 20.76953125 1.19921875 20.76953125 -1.5625 22.9375 C-4.70779875 22.87093283 -5.46276045 22.02892792 -7.8125 19.875 C-8.39 19.235625 -8.9675 18.59625 -9.5625 17.9375 C-9.0675 16.4525 -9.0675 16.4525 -8.5625 14.9375 C-7.964375 15.2675 -7.36625 15.5975 -6.75 15.9375 C-4.50863529 17.14537988 -4.50863529 17.14537988 -1.5625 16.9375 C-0.9025 16.2775 -0.2425 15.6175 0.4375 14.9375 C-0.51125 14.669375 -1.46 14.40125 -2.4375 14.125 C-5.5625 12.9375 -5.5625 12.9375 -7.5625 9.9375 C-8.02205739 6.33763378 -7.97491898 4.58087361 -6 1.5 C-3.5625 -0.0625 -3.5625 -0.0625 0 0 Z " fill="#F9FBFE" transform="translate(32.5625,15.0625)"/>
<path d="M0 0 C2.475 0.495 2.475 0.495 5 1 C6.19625 0.79375 7.3925 0.5875 8.625 0.375 C12 0 12 0 13.9375 0.9375 C15.62713949 4.21738843 15.64358781 7.44596508 15 11 C13.3125 13.5 13.3125 13.5 11 15 C8.3125 15.3125 8.3125 15.3125 6 15 C5.67 14.67 5.34 14.34 5 14 C4.67 16.64 4.34 19.28 4 22 C2.68 22 1.36 22 0 22 C0 14.74 0 7.48 0 0 Z " fill="#5193E3" transform="translate(66,24)"/>
<path d="M0 0 C2.4375 1.3125 2.4375 1.3125 4 4 C4.32396453 7.69107127 4.22932784 11.30527369 4 15 C1.66666667 15 -0.66666667 15 -3 15 C-4.2375 15.061875 -4.2375 15.061875 -5.5 15.125 C-8 15 -8 15 -10 13 C-10.25 10.5 -10.25 10.5 -10 8 C-7.53721199 5.53721199 -5.29323018 5.00228745 -2 4 C-4.31 4.33 -6.62 4.66 -9 5 C-9 3.68 -9 2.36 -9 1 C-5.90826248 -0.54586876 -3.40570448 -0.29359521 0 0 Z " fill="#5A98E4" transform="translate(102,24)"/>
<path d="M0 0 C2.375 1.6875 2.375 1.6875 4 4 C4.25 6.75 4.25 6.75 4 9 C-0.455 9.495 -0.455 9.495 -5 10 C-1.0404226 11.16169042 -1.0404226 11.16169042 3 11 C3 11.99 3 12.98 3 14 C-0.05693322 15.52846661 -2.62984547 15.23242445 -6 15 C-8.4375 14 -8.4375 14 -10 12 C-10.5659239 7.54334931 -10.82483134 5.26897129 -8.375 1.5 C-5.27859404 -0.45562482 -3.60146865 -0.60024477 0 0 Z " fill="#619DE5" transform="translate(153,24)"/>
<path d="M0 0 C2.375 1.6875 2.375 1.6875 4 4 C4.25 6.75 4.25 6.75 4 9 C-0.455 9.495 -0.455 9.495 -5 10 C-3.87465895 11.35618499 -3.87465895 11.35618499 -0.9375 11.0625 C0.031875 11.041875 1.00125 11.02125 2 11 C1.67 12.32 1.34 13.64 1 15 C-6.24942792 15.60411899 -6.24942792 15.60411899 -9.5625 12.9375 C-11.44610971 9.08838451 -11.207644 7.07579849 -10 3 C-7.08550322 -0.34627408 -4.29616198 -0.62652362 0 0 Z " fill="#629DE5" transform="translate(137,24)"/>
<path d="M0 0 C1.32 0 2.64 0 4 0 C4 0.66 4 1.32 4 2 C4.99 1.34 5.98 0.68 7 0 C9.5625 -0.25 9.5625 -0.25 12 0 C14 2 14 2 14.1953125 5.0390625 C14.17210938 6.22242188 14.14890625 7.40578125 14.125 8.625 C14.10695313 9.81351563 14.08890625 11.00203125 14.0703125 12.2265625 C14.04710938 13.14179687 14.02390625 14.05703125 14 15 C12.68 15 11.36 15 10 15 C9.67 11.7 9.34 8.4 9 5 C7.68 4.67 6.36 4.34 5 4 C5 7.63 5 11.26 5 15 C3.35 15 1.7 15 0 15 C0 10.05 0 5.1 0 0 Z " fill="#4F92E2" transform="translate(109,24)"/>
<path d="M0 0 C1.65 0 3.3 0 5 0 C5 7.59 5 15.18 5 23 C3.35 23 1.7 23 0 23 C0 15.41 0 7.82 0 0 Z " fill="#5C99E5" transform="translate(84,16)"/>
<path d="M0 0 C2.475 0.495 2.475 0.495 5 1 C7.23167185 0.63143136 7.23167185 0.63143136 9 0 C9 1.32 9 2.64 9 4 C8.03320312 4.35191406 8.03320312 4.35191406 7.046875 4.7109375 C4.7922092 5.81161073 4.7922092 5.81161073 4.390625 8.1640625 C4.34421875 8.97617187 4.2978125 9.78828125 4.25 10.625 C4.19328125 11.44226562 4.1365625 12.25953125 4.078125 13.1015625 C4.05234375 13.72804688 4.0265625 14.35453125 4 15 C2.68 15 1.36 15 0 15 C0 10.05 0 5.1 0 0 Z " fill="#4D91E2" transform="translate(160,24)"/>
<path d="M0 0 C1.32 0 2.64 0 4 0 C4 0.99 4 1.98 4 3 C4.66 3.33 5.32 3.66 6 4 C5.67 7.63 5.34 11.26 5 15 C3.35 15 1.7 15 0 15 C0 10.05 0 5.1 0 0 Z " fill="#5898E5" transform="translate(109,24)"/>
<path d="M0 0 C1.2065625 0.0309375 1.2065625 0.0309375 2.4375 0.0625 C2.4375 2.0425 2.4375 4.0225 2.4375 6.0625 C0.78135343 6.44468767 -0.88707024 6.77645102 -2.5625 7.0625 C-3.5625 6.0625 -3.5625 6.0625 -3.6875 3.5625 C-3.51717518 0.15600356 -3.41884482 0.08338646 0 0 Z " fill="#F2FAFC" transform="translate(73.5625,27.9375)"/>
<path d="M0 0 C1.32 0 2.64 0 4 0 C3.67 1.32 3.34 2.64 3 4 C1.68 3.67 0.36 3.34 -1 3 C-0.67 2.01 -0.34 1.02 0 0 Z " fill="#E4EBF5" transform="translate(97,32)"/>
</svg>
